<?xml version="1.0" encoding="UTF-8"?>
<svg id="Layer_1" xmlns="http://www.w3.org/2000/svg" version="1.1" viewBox="0 0 1002 80">
  <!-- Generator: Adobe Illustrator 29.8.3, SVG Export Plug-In . SVG Version: 2.1.1 Build 3)  -->
  <defs>
    <style>
      .st0 {
        fill: #fff;
      }
    </style>
  </defs>
  <path class="st0" d="M45.89,28.16c-2.85-1.96-8.05-4.91-13.36-4.91-1.28,0-3.24.2-4.52,1.18-.88.69-1.18,1.38-1.18,2.36,0,1.38.2,2.65,3.83,3.44l7.56,1.67c5.8,1.28,9.23,3.63,11.2,5.6,4.13,4.03,5.01,9.04,5.01,12.97,0,5.6-1.47,10.8-5.89,15.42-3.73,3.83-10.8,8.35-23.08,8.35-10.02,0-16.7-2.85-22.3-5.11l-2.16-.88,7.17-18.47,2.55,1.96c2.46,1.87,7.47,4.81,13.26,4.81,3.24,0,4.62-.79,5.11-1.18,1.08-.89,1.28-1.97,1.28-2.95,0-.59-.1-1.57-.79-2.26-.79-.78-2.06-1.08-4.52-1.57l-5.79-1.08c-3.73-.69-7.76-1.87-11.39-5.6-3.34-3.44-4.71-7.37-4.71-12.08,0-6.09,2.06-11.3,6.38-15.62,5.01-5.11,12.38-8.45,22.79-8.45,5.21,0,11.98.88,19.94,5.7,0,0-6.39,16.7-6.39,16.7Z"/>
  <path class="st0" d="M64.65,7.24h23.57v38.02c0,1.96.2,4.71,2.06,6.68,1.28,1.38,2.85,1.77,4.72,1.77,2.45,0,3.93-.69,4.81-1.57,1.77-1.77,1.77-5.21,1.77-6.88V7.24h23.67v40.18c0,5.11-.98,12.57-6.88,18.66-6.68,6.88-16.11,8.15-23.38,8.15-5.99,0-16.9-.59-24.36-8.65-5.11-5.5-5.99-11.69-5.99-16.5V7.24h.01Z"/>
  <path class="st0" d="M135.78,72.76l10.61-65.52h24.46l7.66,26.82c.98,3.44,1.38,6.68,1.47,7.56h.59c.1-2.85.49-4.81,1.28-7.56l7.66-26.82h24.26l10.71,65.52h-22.89l-2.95-29.37c-.2-2.26-.39-3.73-.39-6.48h-.39c-.29,1.67-.88,4.22-1.28,5.5l-9.72,30.35h-13.95l-8.74-28.68c-.69-2.36-1.18-4.42-1.28-7.17h-.69c0,1.28,0,3.83-.1,5.11l-3.24,30.75h-23.08Z"/>
  <path class="st0" d="M232.34,72.76l10.61-65.52h24.46l7.66,26.82c.98,3.44,1.38,6.68,1.47,7.56h.59c.1-2.85.49-4.81,1.28-7.56l7.66-26.82h24.26l10.71,65.52h-22.89l-2.95-29.37c-.2-2.26-.39-3.73-.39-6.48h-.39c-.29,1.67-.88,4.22-1.28,5.5l-9.72,30.35h-13.95l-8.74-28.68c-.69-2.36-1.18-4.42-1.28-7.17h-.69c0,1.28,0,3.83-.1,5.11l-3.24,30.75h-23.08,0Z"/>
  <path class="st0" d="M331.55,72.76V7.24h44.2v17.98h-20.43v6.09h18.57v17.19h-18.57v6.29h21.02v17.98h-44.79Z"/>
  <path class="st0" d="M386.56,72.76V7.24h29.57c6.88,0,14.04.79,20.04,6.78,3.34,3.34,6.19,8.35,6.19,16.11,0,5.8-1.77,9.43-3.63,11.69-1.97,2.46-5.21,4.42-9.04,5.21v.59c1.28.69,2.55,1.67,3.44,3.05l14.73,22.1h-27.41l-9.43-19.15c-.29-.69-.59-.98-.88-2.06l-.39.2v21.02h-23.18v-.02ZM409.74,36.41h2.75c1.38,0,3.54-.2,5.01-1.47.78-.69,1.67-1.96,1.67-4.03,0-1.47-.39-2.95-1.28-3.93-.78-.88-2.06-1.77-4.03-1.77h-4.13v11.2h0Z"/>
  <path class="st0" d="M476.25,39.66h-17.48l10.51-32.42h22.5l-15.52,32.42h-.01Z"/>
  <path class="st0" d="M540.88,28.16c-2.85-1.96-8.05-4.91-13.36-4.91-1.28,0-3.24.2-4.52,1.18-.88.69-1.18,1.38-1.18,2.36,0,1.38.2,2.65,3.83,3.44l7.56,1.67c5.79,1.28,9.23,3.63,11.2,5.6,4.13,4.03,5.01,9.04,5.01,12.97,0,5.6-1.47,10.8-5.9,15.42-3.73,3.83-10.8,8.35-23.08,8.35-10.02,0-16.7-2.85-22.3-5.11l-2.16-.88,7.17-18.47,2.55,1.96c2.46,1.87,7.46,4.81,13.26,4.81,3.24,0,4.62-.79,5.11-1.18,1.08-.89,1.28-1.97,1.28-2.95,0-.59-.1-1.57-.79-2.26-.79-.78-2.06-1.08-4.52-1.57l-5.8-1.08c-3.73-.69-7.76-1.87-11.39-5.6-3.34-3.44-4.72-7.37-4.72-12.08,0-6.09,2.07-11.3,6.39-15.62,5.01-5.11,12.38-8.45,22.79-8.45,5.21,0,11.98.88,19.94,5.7l-6.39,16.7h.02Z"/>
  <path class="st0" d="M629.78,71.58c-6.19,2.36-13.46,2.65-16.5,2.65-8.54,0-17.68-3.05-24.16-9.53-6.19-6.09-9.53-14.93-9.53-24.17,0-10.12,3.83-18.76,9.82-24.85,4.62-4.62,12.48-9.92,24.76-9.92,4.91,0,10.41.79,15.62,2.55l.69,24.95c-2.75-2.75-7.86-6.48-13.85-6.48-3.73,0-7.17,1.47-9.53,4.03-2.26,2.46-3.44,5.89-3.44,9.33s1.28,6.97,3.83,9.43c1.96,1.87,5.01,3.73,9.72,3.73,6.68,0,11.3-4.03,13.26-6.19l-.69,24.46h0Z"/>
  <path class="st0" d="M660.92,64.61l-1.77,8.15h-25.15l22.69-65.52h26.33l23.38,65.52h-25.25l-2.16-8.15h-18.07ZM670.55,29.14h-.88c-.1,2.75-.49,5.01-1.08,7.37l-3.24,12.57h9.53l-3.04-12.57c-.59-2.55-.98-5.01-1.28-7.37h-.01Z"/>
  <path class="st0" d="M712.98,72.76V7.24h23.77v44.4h20.04v21.12h-43.81Z"/>
  <path class="st0" d="M764.75,72.76V7.24h23.77v44.4h20.04v21.12h-43.81Z"/>
  <path class="st0" d="M816.52,72.76V7.24h23.77v65.52s-23.77,0-23.77,0Z"/>
  <path class="st0" d="M853.46,72.76V7.24h22.69l15.23,24.75c2.46,3.93,4.03,6.48,6.19,11.59h.69c-.98-4.13-2.06-10.71-2.06-15.52V7.24h22.79v65.52h-22.79l-16.31-25.84c-1.47-2.36-3.24-5.8-4.52-8.55h-.69c.69,3.54,1.47,9.14,1.47,12.08v22.3h-22.69,0Z"/>
  <path class="st0" d="M964.16,34.64h36.84v1.47c0,8.05-.69,18.96-8.55,27.41-6.48,6.97-16.99,10.71-27.8,10.71-13.75,0-22.1-5.5-27.01-10.81-6.19-6.68-8.45-14.64-8.45-23.28,0-11.98,4.61-19.55,9.04-24.07,5.3-5.5,14.34-10.31,27.5-10.31,7.07,0,13.16,1.38,19.25,4.62,5.6,3.05,9.53,6.78,12.57,12.08l-22.2,8.25c-1.38-2.16-4.03-5.01-9.04-5.01-3.44,0-6.29,1.18-8.35,3.05-2.65,2.46-4.81,6.68-4.81,12.38,0,4.42,1.47,8.94,4.32,11.69,1.86,1.77,4.42,2.95,7.76,2.95,3.54,0,8.15-1.28,9.73-5.6h-10.81v-15.52h0Z"/>
</svg>